<mxfile host="Electron" modified="2023-12-14T05:09:43.662Z" agent="Mozilla/5.0 (Windows NT 10.0; Win64; x64) AppleWebKit/537.36 (KHTML, like Gecko) draw.io/22.1.2 Chrome/114.0.5735.289 Electron/25.9.4 Safari/537.36" etag="9bV1Fo-uowRE18xTMMoY" version="22.1.2" type="device">
  <diagram name="PÃ¡gina-1" id="1qMlrm7bMvrPsRnXg6sX">
    <mxGraphModel dx="915" dy="690" grid="1" gridSize="10" guides="1" tooltips="1" connect="1" arrows="1" fold="1" page="1" pageScale="1" pageWidth="1169" pageHeight="827" math="0" shadow="0">
      <root>
        <mxCell id="0" />
        <mxCell id="1" parent="0" />
        <mxCell id="iVzfuho7Sa6d6BvzbZt2-99" value="" style="rounded=0;whiteSpace=wrap;html=1;fillColor=none;movable=1;resizable=1;rotatable=1;deletable=1;editable=1;locked=0;connectable=1;" parent="1" vertex="1">
          <mxGeometry x="585" width="575" height="530" as="geometry" />
        </mxCell>
        <mxCell id="iVzfuho7Sa6d6BvzbZt2-1" value="Pasajeros" style="shape=umlActor;verticalLabelPosition=bottom;verticalAlign=top;html=1;outlineConnect=0;" parent="1" vertex="1">
          <mxGeometry x="240" y="80" width="30" height="60" as="geometry" />
        </mxCell>
        <mxCell id="iVzfuho7Sa6d6BvzbZt2-20" value="" style="edgeStyle=orthogonalEdgeStyle;rounded=0;orthogonalLoop=1;jettySize=auto;html=1;" parent="1" edge="1">
          <mxGeometry relative="1" as="geometry">
            <mxPoint x="255" y="351" as="sourcePoint" />
          </mxGeometry>
        </mxCell>
        <mxCell id="iVzfuho7Sa6d6BvzbZt2-10" value="" style="endArrow=classic;html=1;rounded=0;" parent="1" edge="1">
          <mxGeometry width="50" height="50" relative="1" as="geometry">
            <mxPoint x="90" y="140" as="sourcePoint" />
            <mxPoint x="220" y="130" as="targetPoint" />
            <Array as="points">
              <mxPoint x="90" y="130" />
            </Array>
          </mxGeometry>
        </mxCell>
        <mxCell id="iVzfuho7Sa6d6BvzbZt2-11" value="" style="endArrow=classic;html=1;rounded=0;" parent="1" edge="1">
          <mxGeometry width="50" height="50" relative="1" as="geometry">
            <mxPoint x="414" y="140" as="sourcePoint" />
            <mxPoint x="284" y="130" as="targetPoint" />
            <Array as="points">
              <mxPoint x="414" y="130" />
            </Array>
          </mxGeometry>
        </mxCell>
        <mxCell id="iVzfuho7Sa6d6BvzbZt2-12" value="Extranjeros" style="shape=umlActor;verticalLabelPosition=bottom;verticalAlign=top;html=1;outlineConnect=0;" parent="1" vertex="1">
          <mxGeometry x="74" y="148" width="30" height="60" as="geometry" />
        </mxCell>
        <mxCell id="iVzfuho7Sa6d6BvzbZt2-13" value="Nacionales" style="shape=umlActor;verticalLabelPosition=bottom;verticalAlign=top;html=1;outlineConnect=0;" parent="1" vertex="1">
          <mxGeometry x="399" y="148" width="30" height="60" as="geometry" />
        </mxCell>
        <mxCell id="iVzfuho7Sa6d6BvzbZt2-16" value="" style="endArrow=none;html=1;rounded=0;" parent="1" edge="1">
          <mxGeometry width="50" height="50" relative="1" as="geometry">
            <mxPoint x="255" y="230" as="sourcePoint" />
            <mxPoint x="254.70999999999998" y="165" as="targetPoint" />
          </mxGeometry>
        </mxCell>
        <mxCell id="iVzfuho7Sa6d6BvzbZt2-26" value="" style="endArrow=classic;html=1;rounded=0;entryX=1;entryY=0.5;entryDx=0;entryDy=0;" parent="1" edge="1">
          <mxGeometry width="50" height="50" relative="1" as="geometry">
            <mxPoint x="430" y="350" as="sourcePoint" />
            <mxPoint x="315" y="256" as="targetPoint" />
            <Array as="points">
              <mxPoint x="430" y="256" />
            </Array>
          </mxGeometry>
        </mxCell>
        <mxCell id="iVzfuho7Sa6d6BvzbZt2-27" value="" style="endArrow=classic;html=1;rounded=0;entryX=0;entryY=0.5;entryDx=0;entryDy=0;" parent="1" edge="1">
          <mxGeometry width="50" height="50" relative="1" as="geometry">
            <mxPoint x="80" y="350" as="sourcePoint" />
            <mxPoint x="195" y="256" as="targetPoint" />
            <Array as="points">
              <mxPoint x="80" y="256" />
            </Array>
          </mxGeometry>
        </mxCell>
        <mxCell id="iVzfuho7Sa6d6BvzbZt2-29" value="" style="endArrow=classic;html=1;rounded=0;exitX=0.5;exitY=1;exitDx=0;exitDy=0;entryX=0;entryY=0.5;entryDx=0;entryDy=0;" parent="1" edge="1">
          <mxGeometry width="50" height="50" relative="1" as="geometry">
            <mxPoint x="255" y="381" as="sourcePoint" />
            <mxPoint x="300" y="450" as="targetPoint" />
            <Array as="points">
              <mxPoint x="255" y="450" />
            </Array>
          </mxGeometry>
        </mxCell>
        <mxCell id="iVzfuho7Sa6d6BvzbZt2-30" value="" style="endArrow=classic;html=1;rounded=0;entryX=1;entryY=0.5;entryDx=0;entryDy=0;exitX=0.5;exitY=1;exitDx=0;exitDy=0;" parent="1" edge="1">
          <mxGeometry width="50" height="50" relative="1" as="geometry">
            <mxPoint x="430" y="381" as="sourcePoint" />
            <mxPoint x="399" y="450" as="targetPoint" />
            <Array as="points">
              <mxPoint x="430" y="450" />
            </Array>
          </mxGeometry>
        </mxCell>
        <mxCell id="iVzfuho7Sa6d6BvzbZt2-32" value="Include" style="text;html=1;align=center;verticalAlign=middle;resizable=0;points=[];autosize=1;strokeColor=none;fillColor=none;" parent="1" vertex="1">
          <mxGeometry x="195" y="381" width="60" height="30" as="geometry" />
        </mxCell>
        <mxCell id="iVzfuho7Sa6d6BvzbZt2-33" value="Include" style="text;html=1;align=center;verticalAlign=middle;resizable=0;points=[];autosize=1;strokeColor=none;fillColor=none;" parent="1" vertex="1">
          <mxGeometry x="429" y="381" width="60" height="30" as="geometry" />
        </mxCell>
        <mxCell id="iVzfuho7Sa6d6BvzbZt2-35" value="Recibir pasaje" style="ellipse;whiteSpace=wrap;html=1;" parent="1" vertex="1">
          <mxGeometry x="190" y="4" width="130" height="40" as="geometry" />
        </mxCell>
        <mxCell id="iVzfuho7Sa6d6BvzbZt2-36" value="Pagar pasaje" style="ellipse;whiteSpace=wrap;html=1;" parent="1" vertex="1">
          <mxGeometry x="195" y="240" width="120" height="40" as="geometry" />
        </mxCell>
        <mxCell id="iVzfuho7Sa6d6BvzbZt2-37" value="Debito" style="ellipse;whiteSpace=wrap;html=1;" parent="1" vertex="1">
          <mxGeometry x="385" y="350" width="93" height="31" as="geometry" />
        </mxCell>
        <mxCell id="iVzfuho7Sa6d6BvzbZt2-39" value="" style="edgeStyle=orthogonalEdgeStyle;rounded=0;orthogonalLoop=1;jettySize=auto;html=1;" parent="1" source="iVzfuho7Sa6d6BvzbZt2-38" target="iVzfuho7Sa6d6BvzbZt2-36" edge="1">
          <mxGeometry relative="1" as="geometry">
            <Array as="points">
              <mxPoint x="255" y="315" />
              <mxPoint x="255" y="315" />
            </Array>
          </mxGeometry>
        </mxCell>
        <mxCell id="iVzfuho7Sa6d6BvzbZt2-38" value="Credito" style="ellipse;whiteSpace=wrap;html=1;" parent="1" vertex="1">
          <mxGeometry x="208" y="350" width="93" height="31" as="geometry" />
        </mxCell>
        <mxCell id="iVzfuho7Sa6d6BvzbZt2-40" value="Efectivo" style="ellipse;whiteSpace=wrap;html=1;" parent="1" vertex="1">
          <mxGeometry x="34" y="350" width="93" height="31" as="geometry" />
        </mxCell>
        <mxCell id="iVzfuho7Sa6d6BvzbZt2-41" value="Firmar" style="ellipse;whiteSpace=wrap;html=1;" parent="1" vertex="1">
          <mxGeometry x="304" y="435" width="93" height="31" as="geometry" />
        </mxCell>
        <mxCell id="iVzfuho7Sa6d6BvzbZt2-45" value="Seleccionar&lt;br&gt;pasaje" style="ellipse;whiteSpace=wrap;html=1;verticalAlign=top;" parent="1" vertex="1">
          <mxGeometry x="610" y="90" width="90" height="40" as="geometry" />
        </mxCell>
        <mxCell id="iVzfuho7Sa6d6BvzbZt2-49" value="" style="endArrow=none;html=1;rounded=0;entryX=0;entryY=0.5;entryDx=0;entryDy=0;" parent="1" target="iVzfuho7Sa6d6BvzbZt2-45" edge="1">
          <mxGeometry width="50" height="50" relative="1" as="geometry">
            <mxPoint x="270" y="110" as="sourcePoint" />
            <mxPoint x="500" y="60" as="targetPoint" />
          </mxGeometry>
        </mxCell>
        <mxCell id="iVzfuho7Sa6d6BvzbZt2-71" value="" style="group" parent="1" connectable="0" vertex="1">
          <mxGeometry x="700.0017921260645" y="43.99542624513374" width="83.17820787393543" height="74.49457375486625" as="geometry" />
        </mxCell>
        <mxCell id="iVzfuho7Sa6d6BvzbZt2-72" value="" style="endArrow=open;dashed=1;html=1;dashPattern=1 3;strokeWidth=2;rounded=0;strokeColor=default;endFill=0;exitX=0.999;exitY=0.326;exitDx=0;exitDy=0;exitPerimeter=0;" parent="iVzfuho7Sa6d6BvzbZt2-71" source="iVzfuho7Sa6d6BvzbZt2-45" edge="1">
          <mxGeometry width="50" height="50" relative="1" as="geometry">
            <mxPoint x="13.178207873935435" y="64.49457375486625" as="sourcePoint" />
            <mxPoint x="83.17820787393543" y="14.49457375486626" as="targetPoint" />
          </mxGeometry>
        </mxCell>
        <mxCell id="iVzfuho7Sa6d6BvzbZt2-73" value="include" style="text;html=1;strokeColor=none;fillColor=none;align=center;verticalAlign=middle;whiteSpace=wrap;rounded=0;rotation=-30;" parent="iVzfuho7Sa6d6BvzbZt2-71" vertex="1">
          <mxGeometry x="1.71" y="19.96" width="60" height="19.85" as="geometry" />
        </mxCell>
        <mxCell id="iVzfuho7Sa6d6BvzbZt2-70" value="" style="group" parent="iVzfuho7Sa6d6BvzbZt2-71" connectable="0" vertex="1">
          <mxGeometry x="-56.82000000000005" y="-20" width="129.99820787393548" height="64.49457375486625" as="geometry" />
        </mxCell>
        <mxCell id="iVzfuho7Sa6d6BvzbZt2-55" value="" style="endArrow=open;dashed=1;html=1;dashPattern=1 3;strokeWidth=2;rounded=0;strokeColor=default;endFill=0;" parent="iVzfuho7Sa6d6BvzbZt2-70" edge="1">
          <mxGeometry width="50" height="50" relative="1" as="geometry">
            <mxPoint x="13.178207873935435" y="64.49457375486625" as="sourcePoint" />
            <mxPoint x="83.17820787393543" y="14.49457375486626" as="targetPoint" />
          </mxGeometry>
        </mxCell>
        <mxCell id="iVzfuho7Sa6d6BvzbZt2-64" value="include" style="text;html=1;strokeColor=none;fillColor=none;align=center;verticalAlign=middle;whiteSpace=wrap;rounded=0;rotation=-35;" parent="iVzfuho7Sa6d6BvzbZt2-70" vertex="1">
          <mxGeometry x="7.62" y="28.6" width="60" height="14.49" as="geometry" />
        </mxCell>
        <mxCell id="iVzfuho7Sa6d6BvzbZt2-84" value="include" style="text;html=1;strokeColor=none;fillColor=none;align=center;verticalAlign=middle;whiteSpace=wrap;rounded=0;" parent="iVzfuho7Sa6d6BvzbZt2-71" vertex="1">
          <mxGeometry x="13.18" y="57" width="60" height="14.49" as="geometry" />
        </mxCell>
        <mxCell id="iVzfuho7Sa6d6BvzbZt2-75" value="set fecha_sal" style="ellipse;whiteSpace=wrap;html=1;rotation=0;" parent="1" vertex="1">
          <mxGeometry x="783.18" y="44" width="80" height="30" as="geometry" />
        </mxCell>
        <mxCell id="iVzfuho7Sa6d6BvzbZt2-83" value="" style="endArrow=open;dashed=1;html=1;dashPattern=1 3;strokeWidth=2;rounded=0;exitX=0.976;exitY=0.636;exitDx=0;exitDy=0;exitPerimeter=0;endFill=0;" parent="1" source="iVzfuho7Sa6d6BvzbZt2-45" edge="1">
          <mxGeometry width="50" height="50" relative="1" as="geometry">
            <mxPoint x="750" y="220" as="sourcePoint" />
            <mxPoint x="790" y="115" as="targetPoint" />
          </mxGeometry>
        </mxCell>
        <mxCell id="iVzfuho7Sa6d6BvzbZt2-85" value="set horario_sal" style="ellipse;whiteSpace=wrap;html=1;" parent="1" vertex="1">
          <mxGeometry x="790" y="103" width="90" height="26" as="geometry" />
        </mxCell>
        <mxCell id="iVzfuho7Sa6d6BvzbZt2-86" value="" style="endArrow=open;dashed=1;html=1;dashPattern=1 3;strokeWidth=2;rounded=0;exitX=0.754;exitY=0.964;exitDx=0;exitDy=0;endFill=0;exitPerimeter=0;" parent="1" source="iVzfuho7Sa6d6BvzbZt2-45" edge="1">
          <mxGeometry width="50" height="50" relative="1" as="geometry">
            <mxPoint x="670" y="160" as="sourcePoint" />
            <mxPoint x="762" y="160" as="targetPoint" />
          </mxGeometry>
        </mxCell>
        <mxCell id="iVzfuho7Sa6d6BvzbZt2-87" value="include" style="text;html=1;strokeColor=none;fillColor=none;align=center;verticalAlign=middle;whiteSpace=wrap;rounded=0;rotation=21;" parent="1" vertex="1">
          <mxGeometry x="693" y="134" width="60" height="10" as="geometry" />
        </mxCell>
        <mxCell id="iVzfuho7Sa6d6BvzbZt2-90" value="set clase" style="ellipse;whiteSpace=wrap;html=1;rotation=0;" parent="1" vertex="1">
          <mxGeometry x="760" y="154" width="83" height="20" as="geometry" />
        </mxCell>
        <mxCell id="iVzfuho7Sa6d6BvzbZt2-63" value="set destino" style="ellipse;whiteSpace=wrap;html=1;rotation=0;" parent="1" vertex="1">
          <mxGeometry x="701.59" y="9" width="80" height="30" as="geometry" />
        </mxCell>
        <mxCell id="iVzfuho7Sa6d6BvzbZt2-95" value="" style="endArrow=open;dashed=1;html=1;dashPattern=1 3;strokeWidth=2;rounded=0;exitX=0.754;exitY=0.964;exitDx=0;exitDy=0;endFill=0;exitPerimeter=0;" parent="1" edge="1">
          <mxGeometry width="50" height="50" relative="1" as="geometry">
            <mxPoint x="650" y="134" as="sourcePoint" />
            <mxPoint x="720" y="180" as="targetPoint" />
          </mxGeometry>
        </mxCell>
        <mxCell id="iVzfuho7Sa6d6BvzbZt2-96" value="include" style="text;html=1;strokeColor=none;fillColor=none;align=center;verticalAlign=middle;whiteSpace=wrap;rounded=0;rotation=36;" parent="1" vertex="1">
          <mxGeometry x="658" y="146" width="60" height="10" as="geometry" />
        </mxCell>
        <mxCell id="iVzfuho7Sa6d6BvzbZt2-97" value="set ubicacion" style="ellipse;whiteSpace=wrap;html=1;" parent="1" vertex="1">
          <mxGeometry x="711" y="179" width="90" height="20" as="geometry" />
        </mxCell>
        <mxCell id="iVzfuho7Sa6d6BvzbZt2-98" value="Turista" style="ellipse;whiteSpace=wrap;html=1;" parent="1" vertex="1">
          <mxGeometry x="920" y="118.49" width="80" height="21.51" as="geometry" />
        </mxCell>
        <mxCell id="iVzfuho7Sa6d6BvzbZt2-101" value="Ejecutiva" style="ellipse;whiteSpace=wrap;html=1;" parent="1" vertex="1">
          <mxGeometry x="920" y="152.49" width="80" height="21.51" as="geometry" />
        </mxCell>
        <mxCell id="iVzfuho7Sa6d6BvzbZt2-102" value="Standard" style="ellipse;whiteSpace=wrap;html=1;" parent="1" vertex="1">
          <mxGeometry x="920" y="186.49" width="80" height="21.51" as="geometry" />
        </mxCell>
        <mxCell id="iVzfuho7Sa6d6BvzbZt2-103" value="" style="endArrow=classic;html=1;rounded=0;entryX=1;entryY=0.5;entryDx=0;entryDy=0;exitX=0;exitY=0.5;exitDx=0;exitDy=0;" parent="1" source="iVzfuho7Sa6d6BvzbZt2-98" target="iVzfuho7Sa6d6BvzbZt2-90" edge="1">
          <mxGeometry width="50" height="50" relative="1" as="geometry">
            <mxPoint x="820" y="220" as="sourcePoint" />
            <mxPoint x="870" y="170" as="targetPoint" />
          </mxGeometry>
        </mxCell>
        <mxCell id="iVzfuho7Sa6d6BvzbZt2-104" value="" style="endArrow=classic;html=1;rounded=0;entryX=1;entryY=0.5;entryDx=0;entryDy=0;exitX=0;exitY=0.5;exitDx=0;exitDy=0;" parent="1" source="iVzfuho7Sa6d6BvzbZt2-101" target="iVzfuho7Sa6d6BvzbZt2-90" edge="1">
          <mxGeometry width="50" height="50" relative="1" as="geometry">
            <mxPoint x="820" y="240" as="sourcePoint" />
            <mxPoint x="870" y="190" as="targetPoint" />
          </mxGeometry>
        </mxCell>
        <mxCell id="iVzfuho7Sa6d6BvzbZt2-105" value="" style="endArrow=classic;html=1;rounded=0;entryX=1;entryY=0.5;entryDx=0;entryDy=0;exitX=0;exitY=0.5;exitDx=0;exitDy=0;" parent="1" source="iVzfuho7Sa6d6BvzbZt2-102" target="iVzfuho7Sa6d6BvzbZt2-90" edge="1">
          <mxGeometry width="50" height="50" relative="1" as="geometry">
            <mxPoint x="850" y="260" as="sourcePoint" />
            <mxPoint x="900" y="210" as="targetPoint" />
          </mxGeometry>
        </mxCell>
        <mxCell id="iVzfuho7Sa6d6BvzbZt2-106" value="Presentar&lt;br&gt;documentacion" style="ellipse;whiteSpace=wrap;html=1;" parent="1" vertex="1">
          <mxGeometry x="663" y="230" width="120" height="35" as="geometry" />
        </mxCell>
        <mxCell id="iVzfuho7Sa6d6BvzbZt2-107" value="" style="endArrow=open;dashed=1;html=1;dashPattern=1 3;strokeWidth=2;rounded=0;exitX=1;exitY=0;exitDx=0;exitDy=0;endFill=0;" parent="1" source="iVzfuho7Sa6d6BvzbZt2-106" target="iVzfuho7Sa6d6BvzbZt2-109" edge="1">
          <mxGeometry width="50" height="50" relative="1" as="geometry">
            <mxPoint x="800" y="280" as="sourcePoint" />
            <mxPoint x="870" y="235" as="targetPoint" />
          </mxGeometry>
        </mxCell>
        <mxCell id="iVzfuho7Sa6d6BvzbZt2-109" value="DNI" style="ellipse;whiteSpace=wrap;html=1;" parent="1" vertex="1">
          <mxGeometry x="863.18" y="209" width="90" height="21" as="geometry" />
        </mxCell>
        <mxCell id="iVzfuho7Sa6d6BvzbZt2-110" value="include" style="text;html=1;strokeColor=none;fillColor=none;align=center;verticalAlign=middle;whiteSpace=wrap;rounded=0;rotation=352;" parent="1" vertex="1">
          <mxGeometry x="782" y="218" width="60" height="9" as="geometry" />
        </mxCell>
        <mxCell id="iVzfuho7Sa6d6BvzbZt2-111" value="" style="endArrow=open;dashed=1;html=1;dashPattern=1 3;strokeWidth=2;rounded=0;exitX=1;exitY=0.5;exitDx=0;exitDy=0;endFill=0;entryX=0;entryY=0.5;entryDx=0;entryDy=0;startArrow=open;startFill=0;" parent="1" source="iVzfuho7Sa6d6BvzbZt2-106" target="iVzfuho7Sa6d6BvzbZt2-112" edge="1">
          <mxGeometry width="50" height="50" relative="1" as="geometry">
            <mxPoint x="770" y="320" as="sourcePoint" />
            <mxPoint x="820" y="270" as="targetPoint" />
          </mxGeometry>
        </mxCell>
        <mxCell id="iVzfuho7Sa6d6BvzbZt2-112" value="Ingreso al pais" style="ellipse;whiteSpace=wrap;html=1;" parent="1" vertex="1">
          <mxGeometry x="863.18" y="240" width="90" height="21" as="geometry" />
        </mxCell>
        <mxCell id="iVzfuho7Sa6d6BvzbZt2-113" value="extend" style="text;html=1;strokeColor=none;fillColor=none;align=center;verticalAlign=middle;whiteSpace=wrap;rounded=0;rotation=2;" parent="1" vertex="1">
          <mxGeometry x="793.18" y="238" width="60" height="10" as="geometry" />
        </mxCell>
        <mxCell id="iVzfuho7Sa6d6BvzbZt2-114" value="" style="endArrow=open;dashed=1;html=1;dashPattern=1 3;strokeWidth=2;rounded=0;exitX=1;exitY=1;exitDx=0;exitDy=0;endFill=0;" parent="1" source="iVzfuho7Sa6d6BvzbZt2-106" target="iVzfuho7Sa6d6BvzbZt2-115" edge="1">
          <mxGeometry width="50" height="50" relative="1" as="geometry">
            <mxPoint x="790" y="350" as="sourcePoint" />
            <mxPoint x="840" y="280" as="targetPoint" />
          </mxGeometry>
        </mxCell>
        <mxCell id="iVzfuho7Sa6d6BvzbZt2-115" value="Pasaporte" style="ellipse;whiteSpace=wrap;html=1;" parent="1" vertex="1">
          <mxGeometry x="863.18" y="280" width="86.82" height="20" as="geometry" />
        </mxCell>
        <mxCell id="iVzfuho7Sa6d6BvzbZt2-116" value="include" style="text;html=1;strokeColor=none;fillColor=none;align=center;verticalAlign=middle;whiteSpace=wrap;rounded=0;rotation=15;" parent="1" vertex="1">
          <mxGeometry x="798.68" y="261" width="47" height="10" as="geometry" />
        </mxCell>
        <mxCell id="iVzfuho7Sa6d6BvzbZt2-118" value="" style="endArrow=classic;html=1;rounded=0;exitX=0.5;exitY=1;exitDx=0;exitDy=0;entryX=1;entryY=0.5;entryDx=0;entryDy=0;" parent="1" source="iVzfuho7Sa6d6BvzbZt2-121" target="iVzfuho7Sa6d6BvzbZt2-122" edge="1">
          <mxGeometry width="50" height="50" relative="1" as="geometry">
            <mxPoint x="900" y="485" as="sourcePoint" />
            <mxPoint x="950" y="435" as="targetPoint" />
          </mxGeometry>
        </mxCell>
        <mxCell id="iVzfuho7Sa6d6BvzbZt2-119" value="" style="endArrow=classic;html=1;rounded=0;" parent="1" edge="1">
          <mxGeometry width="50" height="50" relative="1" as="geometry">
            <mxPoint x="680" y="260" as="sourcePoint" />
            <mxPoint x="650" y="310" as="targetPoint" />
          </mxGeometry>
        </mxCell>
        <mxCell id="iVzfuho7Sa6d6BvzbZt2-120" value="" style="endArrow=classic;html=1;rounded=0;exitX=0.5;exitY=1;exitDx=0;exitDy=0;entryX=0.5;entryY=0;entryDx=0;entryDy=0;" parent="1" source="iVzfuho7Sa6d6BvzbZt2-123" target="iVzfuho7Sa6d6BvzbZt2-122" edge="1">
          <mxGeometry width="50" height="50" relative="1" as="geometry">
            <mxPoint x="743.1800000000001" y="431" as="sourcePoint" />
            <mxPoint x="793.1800000000001" y="381" as="targetPoint" />
          </mxGeometry>
        </mxCell>
        <mxCell id="iVzfuho7Sa6d6BvzbZt2-121" value="Empresa" style="ellipse;whiteSpace=wrap;html=1;" parent="1" vertex="1">
          <mxGeometry x="740" y="355.5" width="84" height="20" as="geometry" />
        </mxCell>
        <mxCell id="iVzfuho7Sa6d6BvzbZt2-122" value="Presentar&amp;nbsp;&lt;br&gt;Descuento" style="ellipse;whiteSpace=wrap;html=1;" parent="1" vertex="1">
          <mxGeometry x="606.5" y="395" width="91" height="37" as="geometry" />
        </mxCell>
        <mxCell id="iVzfuho7Sa6d6BvzbZt2-123" value="Millaje" style="ellipse;whiteSpace=wrap;html=1;" parent="1" vertex="1">
          <mxGeometry x="610" y="310" width="84" height="20" as="geometry" />
        </mxCell>
        <mxCell id="miok0FXCvB33CwQHVHmf-1" value="" style="endArrow=none;html=1;rounded=0;" edge="1" parent="1">
          <mxGeometry width="50" height="50" relative="1" as="geometry">
            <mxPoint x="280" y="120" as="sourcePoint" />
            <mxPoint x="520" y="120" as="targetPoint" />
          </mxGeometry>
        </mxCell>
        <mxCell id="miok0FXCvB33CwQHVHmf-2" value="" style="endArrow=none;html=1;rounded=0;" edge="1" parent="1">
          <mxGeometry width="50" height="50" relative="1" as="geometry">
            <mxPoint x="520" y="250" as="sourcePoint" />
            <mxPoint x="520" y="120" as="targetPoint" />
          </mxGeometry>
        </mxCell>
        <mxCell id="miok0FXCvB33CwQHVHmf-3" value="" style="endArrow=none;html=1;rounded=0;exitX=-0.001;exitY=0.573;exitDx=0;exitDy=0;exitPerimeter=0;" edge="1" parent="1" source="iVzfuho7Sa6d6BvzbZt2-106">
          <mxGeometry width="50" height="50" relative="1" as="geometry">
            <mxPoint x="460" y="300" as="sourcePoint" />
            <mxPoint x="520" y="250" as="targetPoint" />
          </mxGeometry>
        </mxCell>
        <mxCell id="miok0FXCvB33CwQHVHmf-4" value="" style="endArrow=none;html=1;rounded=0;entryX=0.5;entryY=1;entryDx=0;entryDy=0;exitX=0.5;exitY=0;exitDx=0;exitDy=0;exitPerimeter=0;" edge="1" parent="1" source="iVzfuho7Sa6d6BvzbZt2-1" target="iVzfuho7Sa6d6BvzbZt2-35">
          <mxGeometry width="50" height="50" relative="1" as="geometry">
            <mxPoint x="430" y="190" as="sourcePoint" />
            <mxPoint x="480" y="140" as="targetPoint" />
          </mxGeometry>
        </mxCell>
      </root>
    </mxGraphModel>
  </diagram>
</mxfile>
